<svg width="691" height="635" viewBox="0 0 911 838" fill="none" xmlns="http://www.w3.org/2000/svg">
<path d="M433 50C642.868 50 813 220.132 813 430C813 639.868 642.868 810 433 810C223.132 810 53 639.868 53 430C53 220.132 223.132 50 433 50ZM637.484 660.519C635.433 660.519 633.803 662.192 633.803 664.244C633.803 666.311 635.506 667.971 637.564 667.971C639.617 667.971 641.291 666.311 641.291 664.244C641.291 662.192 639.617 660.519 637.564 660.519H637.484ZM458.254 653.066C456.202 653.067 454.571 654.726 454.571 656.792C454.571 658.844 456.274 660.518 458.334 660.519C460.387 660.519 462.061 658.844 462.061 656.792C462.06 654.726 460.386 653.066 458.334 653.066H458.254ZM376.514 615.806C374.454 615.806 372.787 617.465 372.787 619.532V630.71H369.062C368.572 630.709 368.087 630.805 367.635 630.992C367.182 631.179 366.771 631.453 366.425 631.799C366.079 632.145 365.804 632.556 365.617 633.009C365.43 633.461 365.334 633.946 365.335 634.436C365.335 636.488 367.002 638.162 369.062 638.162H372.787V649.34C372.787 651.392 374.454 653.066 376.514 653.066C378.574 653.066 380.239 651.392 380.239 649.34V638.162H383.959C386.019 638.162 387.685 636.488 387.685 634.436C387.686 633.946 387.589 633.461 387.402 633.009C387.215 632.556 386.942 632.145 386.596 631.799C386.25 631.453 385.838 631.179 385.386 630.992C384.933 630.805 384.448 630.709 383.959 630.71H380.239V619.532C380.239 617.465 378.573 615.806 376.514 615.806ZM325.899 521.154C315.951 521.154 306.599 525.025 299.569 532.07C292.736 538.898 278.733 558.285 268.035 577.7C253.728 603.652 250.249 619.75 257.403 626.911C259.784 629.283 263.218 630.491 267.606 630.491C290.771 630.491 340.847 596.17 352.266 584.76C366.777 570.234 366.762 546.596 352.244 532.07C345.207 525.025 335.848 521.154 325.899 521.154ZM525.556 585.997C524.568 585.998 523.621 586.391 522.923 587.089C522.224 587.787 521.831 588.735 521.83 589.723L521.836 600.901H518.105C516.046 600.901 514.379 602.561 514.379 604.628C514.379 606.679 516.046 608.353 518.105 608.354H521.84L521.846 619.546C521.846 620.534 522.239 621.481 522.938 622.18C523.636 622.878 524.583 623.271 525.571 623.271C526.559 623.271 527.506 622.878 528.205 622.18C528.904 621.481 529.297 620.534 529.298 619.546L529.292 608.354H533.01C533.998 608.353 534.945 607.96 535.644 607.262C536.342 606.563 536.735 605.616 536.735 604.628C536.736 604.138 536.641 603.654 536.454 603.201C536.267 602.749 535.993 602.337 535.646 601.991C535.3 601.645 534.89 601.371 534.438 601.184C533.985 600.997 533.499 600.901 533.01 600.901H529.288L529.282 589.723C529.282 587.67 527.616 585.997 525.556 585.997ZM325.898 528.607C333.86 528.607 341.342 531.706 346.976 537.34C358.589 548.955 358.604 567.876 346.997 579.491C335.048 591.426 287.133 623.04 267.606 623.04C265.263 623.04 263.604 622.574 262.672 621.643C259.595 618.557 260.86 606.141 274.563 581.296C284.614 563.044 298.332 543.831 304.838 537.339C310.463 531.706 317.937 528.608 325.898 528.607ZM336.452 547.877C330.818 542.244 321.002 542.245 315.369 547.862C314.881 548.359 270.061 597.408 278.479 605.834C279.142 606.489 280.32 607.275 282.197 607.275C293.158 607.275 336.059 569.332 336.445 568.938C339.261 566.129 340.811 562.388 340.812 558.4C340.818 556.445 340.436 554.508 339.688 552.701C338.939 550.895 337.839 549.255 336.452 547.877ZM325.906 550.963C326.887 550.959 327.858 551.151 328.764 551.525C329.67 551.9 330.492 552.451 331.184 553.146C331.877 553.834 332.426 554.653 332.8 555.555C333.173 556.457 333.364 557.425 333.359 558.401C333.364 559.38 333.174 560.35 332.799 561.255C332.424 562.159 331.872 562.98 331.176 563.669C325.791 569.055 297.437 592.065 286.026 598.281C292.241 586.87 315.252 558.517 320.638 553.132C321.33 552.441 322.152 551.894 323.056 551.521C323.96 551.149 324.929 550.959 325.906 550.963ZM618.709 504.022C598.172 504.022 581.456 520.732 581.448 541.284C581.456 561.821 598.172 578.544 618.717 578.559C639.261 578.543 655.97 561.821 655.97 541.284C655.97 520.733 639.253 504.023 618.709 504.022ZM631.191 252.438C623.687 244.92 605.806 245.276 591.601 248.114C572.054 252.022 553.83 261.272 541.604 273.505L401.922 413.194C401.862 413.147 401.801 413.102 401.738 413.059C400.246 412.01 364.303 388.214 310.041 442.485C309.561 442.965 309.22 443.567 309.058 444.227C308.895 444.886 308.916 445.577 309.117 446.226C309.32 446.876 309.697 447.46 310.208 447.911C310.719 448.363 311.343 448.666 312.014 448.788C320.758 450.377 343.303 455.972 351.169 463.951L336.104 479.019L335.976 479.152C335.357 479.836 335.012 480.726 335.012 481.652C335.012 482.64 335.405 483.588 336.104 484.287L357.179 505.362C357.524 505.709 357.935 505.984 358.387 506.171C358.839 506.358 359.323 506.455 359.812 506.454C360.55 506.455 361.271 506.236 361.884 505.827C362.497 505.418 362.975 504.836 363.257 504.155C363.539 503.474 363.612 502.725 363.468 502.002C363.324 501.279 362.969 500.615 362.447 500.094L344.005 481.652L546.874 278.773C558.088 267.559 574.921 259.044 593.057 255.42C609.787 252.073 622.253 254.037 625.921 257.705C629.8 261.584 632.776 272.945 630.149 288.708C628.454 298.896 622.907 318.69 604.845 336.753L416.795 524.806C416.605 524.961 416.432 525.135 416.276 525.325L401.978 539.624L383.521 521.169C382.823 520.47 381.876 520.078 380.888 520.078C379.9 520.078 378.952 520.47 378.253 521.169C377.555 521.867 377.162 522.815 377.162 523.803C377.162 524.791 377.554 525.739 378.253 526.438L399.263 547.446C399.355 547.545 399.454 547.637 399.557 547.725C399.584 547.748 399.612 547.772 399.641 547.795C399.671 547.819 399.701 547.843 399.732 547.866C399.77 547.895 399.809 547.922 399.848 547.949C399.868 547.963 399.887 547.979 399.907 547.992C399.917 547.999 399.928 548.004 399.938 548.011C399.994 548.048 400.051 548.082 400.109 548.116C400.131 548.129 400.153 548.142 400.176 548.154C400.297 548.222 400.423 548.283 400.552 548.337C400.569 548.344 400.586 548.35 400.603 548.356C400.627 548.366 400.653 548.375 400.678 548.385C400.741 548.408 400.804 548.43 400.868 548.45C400.883 548.455 400.897 548.459 400.912 548.464C400.987 548.486 401.062 548.506 401.138 548.523C401.152 548.527 401.166 548.529 401.181 548.532C401.343 548.568 401.507 548.592 401.673 548.605C401.691 548.607 401.71 548.608 401.729 548.609C401.811 548.615 401.894 548.619 401.978 548.619C402.061 548.619 402.144 548.615 402.227 548.609C402.244 548.608 402.262 548.607 402.28 548.605C402.447 548.592 402.613 548.568 402.776 548.532C402.789 548.53 402.801 548.526 402.813 548.523C402.979 548.486 403.142 548.437 403.301 548.377C403.314 548.372 403.326 548.366 403.339 548.361C403.36 548.353 403.383 548.346 403.404 548.337C403.54 548.281 403.672 548.214 403.8 548.143C403.809 548.137 403.818 548.132 403.827 548.127C403.975 548.042 404.118 547.948 404.253 547.844C404.267 547.833 404.281 547.822 404.295 547.811C404.347 547.769 404.399 547.726 404.449 547.682C404.478 547.656 404.507 547.629 404.535 547.603C404.561 547.578 404.588 547.554 404.613 547.528L419.654 532.486C427.075 538.984 433.201 559.623 435.49 572.243C435.612 572.913 435.915 573.537 436.365 574.047C436.815 574.557 437.396 574.935 438.045 575.139C438.408 575.241 438.787 575.299 439.158 575.299C439.648 575.299 440.133 575.204 440.585 575.017C441.037 574.83 441.448 574.555 441.794 574.209C496.069 519.977 472.243 484.04 471.202 482.541C470.981 482.218 470.718 481.942 470.425 481.714L610.114 342.022C643.897 308.241 642.951 264.198 631.191 252.438ZM618.709 511.475C635.15 511.475 648.518 524.837 648.518 541.284C648.517 557.717 635.15 571.092 618.717 571.107C602.285 571.093 588.909 557.717 588.901 541.284C588.909 524.851 602.277 511.475 618.709 511.475ZM465.185 486.955C466.758 489.493 483.285 518.795 441.356 563.931C438.938 553.663 433.611 535.358 424.909 527.231L465.185 486.955ZM615.144 556.188C613.091 556.188 611.461 557.863 611.461 559.914C611.461 561.981 613.164 563.641 615.224 563.641C617.276 563.641 618.949 561.981 618.949 559.914C618.947 558.927 618.554 557.98 617.855 557.281C617.157 556.583 616.211 556.19 615.224 556.188H615.144ZM343.8 493.74C342.885 493.79 342.02 494.177 341.371 494.824C338.416 497.78 336.548 505.815 357.179 526.438C371.129 540.396 379.315 544.05 384.068 544.05C386.353 544.05 387.845 543.205 388.799 542.26C389.497 541.561 389.89 540.614 389.89 539.626C389.89 538.638 389.497 537.69 388.799 536.991C388.2 536.394 387.414 536.017 386.573 535.925C385.732 535.832 384.885 536.029 384.17 536.481C383.165 536.423 377.488 536.217 362.447 521.17C347.383 506.105 347.092 500.341 347.149 499.453C347.64 498.679 347.829 497.751 347.678 496.847C347.527 495.943 347.047 495.126 346.332 494.553C345.617 493.98 344.715 493.69 343.8 493.74ZM629.888 518.928C623.73 518.928 618.717 523.934 618.717 530.106C618.724 536.262 623.746 541.284 629.91 541.284C631.381 541.289 632.838 541 634.196 540.436C635.554 539.871 636.786 539.04 637.819 537.994C638.855 536.959 639.675 535.729 640.232 534.375C640.789 533.021 641.073 531.57 641.065 530.106C641.065 523.949 636.051 518.928 629.888 518.928ZM600.231 533.817C598.179 533.817 596.549 535.492 596.549 537.543C596.549 539.61 598.252 541.269 600.312 541.27C602.364 541.27 604.037 539.609 604.037 537.543C604.035 536.556 603.642 535.609 602.944 534.911C602.246 534.213 601.299 533.819 600.312 533.817H600.231ZM629.88 526.38C630.871 526.381 631.821 526.776 632.521 527.478C633.22 528.179 633.614 529.129 633.613 530.12C633.613 531.109 633.235 532.042 632.536 532.74C631.837 533.439 630.907 533.832 629.91 533.832H629.896C627.807 533.832 626.176 532.186 626.169 530.091C626.17 529.107 626.56 528.163 627.256 527.467C627.952 526.771 628.896 526.38 629.88 526.38ZM433.555 446.342C433.066 446.342 432.582 446.439 432.13 446.626C431.678 446.813 431.267 447.088 430.921 447.434L367.716 510.631C367.195 511.152 366.841 511.816 366.697 512.539C366.554 513.261 366.627 514.01 366.909 514.69C367.191 515.371 367.669 515.954 368.281 516.363C368.894 516.773 369.614 516.991 370.351 516.991C370.84 516.992 371.324 516.896 371.776 516.709C372.228 516.522 372.639 516.247 372.984 515.9L436.189 452.701C436.535 452.355 436.81 451.945 436.997 451.493C437.184 451.041 437.28 450.557 437.28 450.067C437.28 449.578 437.184 449.094 436.997 448.642C436.81 448.19 436.535 447.779 436.189 447.434C435.844 447.088 435.432 446.813 434.98 446.626C434.529 446.439 434.044 446.342 433.555 446.342ZM272.322 496.57C270.27 496.57 268.64 498.23 268.64 500.297C268.64 502.348 270.342 504.022 272.402 504.022C273.39 504.02 274.336 503.628 275.034 502.93C275.732 502.231 276.126 501.284 276.128 500.297C276.128 499.808 276.032 499.323 275.845 498.871C275.658 498.419 275.383 498.008 275.037 497.662C274.691 497.316 274.28 497.041 273.828 496.854C273.376 496.666 272.892 496.57 272.402 496.57H272.322ZM555.526 459.311C553.474 459.311 551.844 460.969 551.844 463.036C551.844 465.089 553.547 466.762 555.606 466.762C556.594 466.76 557.541 466.367 558.239 465.669C558.938 464.971 559.331 464.024 559.333 463.036C559.333 460.969 557.659 459.311 555.606 459.311H555.526ZM320.318 442.922C362.82 403.387 390.895 415.472 396.52 418.599L356.416 458.704C348.035 450.396 330.337 445.274 320.318 442.922ZM644.944 429.498C642.892 429.498 641.262 431.165 641.262 433.224C641.262 435.283 642.965 436.95 645.024 436.95C647.076 436.95 648.751 435.283 648.751 433.224C648.75 432.236 648.357 431.288 647.658 430.59C646.96 429.892 646.012 429.499 645.024 429.498H644.944ZM494.184 389.443C484.33 379.589 467.141 379.604 457.301 389.443C452.375 394.362 449.66 400.913 449.66 407.884C449.66 414.849 452.374 421.399 457.301 426.325C462.221 431.253 468.771 433.966 475.743 433.966C482.707 433.966 489.257 431.252 494.184 426.325C499.11 421.399 501.825 414.848 501.825 407.884C501.825 400.92 499.11 394.371 494.184 389.443ZM234.931 392.236C232.871 392.236 231.205 393.904 231.205 395.963L231.199 407.141H227.479C225.419 407.141 223.753 408.807 223.753 410.867C223.753 412.927 225.419 414.594 227.479 414.594H231.196L231.19 425.771C231.19 426.261 231.286 426.746 231.473 427.198C231.66 427.65 231.934 428.061 232.28 428.407C232.626 428.753 233.037 429.028 233.489 429.215C233.941 429.402 234.427 429.498 234.916 429.498C236.976 429.498 238.643 427.831 238.643 425.771L238.648 414.594H242.383C244.443 414.594 246.108 412.927 246.108 410.867C246.108 408.807 244.443 407.141 242.383 407.141H238.651L238.657 395.963C238.657 393.903 236.991 392.236 234.931 392.236ZM475.743 389.253C478.19 389.247 480.615 389.726 482.876 390.663C485.137 391.6 487.189 392.976 488.914 394.712C490.649 396.438 492.026 398.49 492.963 400.751C493.9 403.012 494.378 405.436 494.372 407.884C494.378 410.331 493.9 412.756 492.963 415.017C492.026 417.278 490.649 419.331 488.914 421.057C481.862 428.108 469.592 428.094 462.57 421.057C460.835 419.331 459.458 417.278 458.521 415.017C457.585 412.756 457.106 410.331 457.112 407.884C457.112 402.905 459.048 398.226 462.57 394.712C466.085 391.189 470.764 389.253 475.743 389.253ZM483.646 399.981C479.411 395.731 472.003 395.731 467.768 399.981C466.312 401.444 466.312 403.801 467.768 405.249C468.113 405.595 468.524 405.87 468.976 406.058C469.428 406.245 469.912 406.341 470.401 406.341C470.891 406.341 471.375 406.245 471.827 406.058C472.279 405.87 472.69 405.595 473.036 405.249C474.476 403.809 476.937 403.809 478.377 405.249C478.723 405.596 479.133 405.871 479.585 406.059C480.037 406.246 480.522 406.341 481.012 406.341C481.501 406.341 481.986 406.246 482.438 406.059C482.89 405.871 483.301 405.596 483.646 405.249C485.101 403.801 485.101 401.444 483.646 399.981ZM546.881 336.738C537.027 326.885 519.844 326.886 509.991 336.746C505.065 341.673 502.35 348.223 502.35 355.194C502.35 362.159 505.065 368.708 509.991 373.636C514.918 378.562 521.46 381.277 528.432 381.277C535.395 381.277 541.953 378.555 546.881 373.629C551.807 368.702 554.521 362.151 554.521 355.18C554.521 348.215 551.807 341.665 546.881 336.738ZM528.439 336.549C530.887 336.542 533.311 337.021 535.572 337.958C537.833 338.895 539.887 340.271 541.612 342.006C543.348 343.732 544.723 345.785 545.66 348.046C546.597 350.307 547.076 352.731 547.07 355.179C547.077 357.627 546.599 360.053 545.662 362.315C544.725 364.578 543.349 366.632 541.612 368.358C534.568 375.403 522.291 375.396 515.261 368.366C513.525 366.641 512.149 364.587 511.212 362.326C510.275 360.065 509.796 357.641 509.803 355.193C509.796 352.745 510.274 350.319 511.211 348.057C512.148 345.795 513.525 343.741 515.261 342.015C518.783 338.493 523.462 336.549 528.439 336.549ZM536.344 347.284C531.963 342.903 524.844 342.903 520.464 347.284C519.79 347.988 519.418 348.928 519.429 349.902C519.439 350.876 519.832 351.807 520.521 352.496C521.209 353.185 522.14 353.577 523.114 353.588C524.088 353.599 525.029 353.227 525.732 352.554C526.442 351.848 527.402 351.451 528.403 351.451C529.404 351.451 530.365 351.848 531.074 352.554C531.42 352.9 531.83 353.175 532.282 353.362C532.734 353.549 533.219 353.645 533.708 353.645C534.445 353.644 535.165 353.426 535.777 353.017C536.39 352.607 536.867 352.025 537.149 351.345C537.431 350.664 537.506 349.915 537.362 349.192C537.219 348.47 536.864 347.805 536.344 347.284ZM379.603 302.572C369.686 293.142 352.884 293.293 343.161 303.009C338.234 307.928 335.52 314.477 335.52 321.441C335.527 328.197 338.081 334.562 342.732 339.436C342.703 339.438 342.674 339.444 342.646 339.445C341.88 338.919 340.944 338.698 340.023 338.825C339.103 338.953 338.263 339.419 337.669 340.134C337.075 340.848 336.769 341.759 336.812 342.688C336.854 343.616 337.242 344.495 337.899 345.152C339.1 346.352 340.628 346.869 342.354 346.869C344.574 346.869 347.13 346.021 349.775 344.692C353.399 346.543 357.43 347.524 361.609 347.524C368.574 347.524 375.124 344.81 380.043 339.883C384.978 334.956 387.691 328.406 387.691 321.441C387.691 317.26 386.712 313.229 384.862 309.608C387.227 304.899 388.067 300.471 385.32 297.724C384.622 297.025 383.674 296.633 382.687 296.633C381.699 296.633 380.751 297.025 380.052 297.724C378.757 299.011 378.619 301.02 379.614 302.469C379.612 302.502 379.606 302.537 379.603 302.572ZM379.826 317.52C380.099 318.795 380.24 320.107 380.24 321.441C380.24 326.413 378.298 331.093 374.775 334.614C370.342 339.057 363.827 340.696 357.853 339.535C363.189 335.526 367.817 331.041 369.506 329.353C371.212 327.646 375.78 322.932 379.826 317.52ZM549.532 277.746C548.558 277.757 547.626 278.149 546.938 278.838C546.249 279.527 545.857 280.458 545.847 281.432C545.836 282.406 546.207 283.346 546.881 284.05L599.577 336.746C599.923 337.093 600.333 337.367 600.785 337.555C601.237 337.742 601.722 337.838 602.211 337.838C602.7 337.839 603.186 337.742 603.638 337.555C604.09 337.367 604.5 337.092 604.845 336.745C605.191 336.399 605.466 335.988 605.653 335.536C605.84 335.084 605.937 334.599 605.937 334.11C605.936 333.621 605.841 333.136 605.653 332.685C605.466 332.233 605.191 331.822 604.845 331.477L552.149 278.78C551.446 278.107 550.506 277.735 549.532 277.746ZM361.609 302.812C366.58 302.812 371.253 304.747 374.775 308.27C375.259 308.753 375.712 309.26 376.136 309.785C373.659 313.598 369.78 318.539 364.237 324.083C358.701 329.615 353.767 333.488 349.959 335.963C349.43 335.546 348.922 335.097 348.438 334.614C346.703 332.888 345.327 330.835 344.389 328.574C343.451 326.313 342.969 323.889 342.973 321.441C342.966 318.995 343.445 316.571 344.382 314.312C345.319 312.052 346.695 310 348.431 308.276C351.952 304.754 356.632 302.812 361.609 302.812ZM212.712 295.359C210.661 295.359 209.03 297.026 209.03 299.085C209.03 301.145 210.732 302.811 212.792 302.812C214.844 302.812 216.519 301.145 216.519 299.085C216.518 297.026 214.844 295.359 212.792 295.359H212.712ZM285.96 246.061C285.471 246.06 284.986 246.157 284.534 246.344C284.082 246.531 283.671 246.805 283.325 247.151C282.979 247.497 282.704 247.908 282.517 248.36C282.33 248.812 282.233 249.297 282.233 249.786L282.23 260.966H278.501C278.012 260.965 277.526 261.062 277.074 261.249C276.622 261.436 276.211 261.711 275.865 262.057C275.519 262.403 275.245 262.813 275.058 263.266C274.87 263.718 274.774 264.202 274.774 264.691C274.774 266.751 276.441 268.418 278.501 268.418H282.229L282.227 279.596C282.227 281.655 283.893 283.322 285.953 283.322C288.012 283.322 289.678 281.656 289.679 279.596L289.682 268.418H293.405C295.464 268.418 297.131 266.751 297.131 264.691C297.131 264.202 297.035 263.718 296.848 263.266C296.661 262.814 296.386 262.403 296.04 262.057C295.694 261.711 295.283 261.436 294.831 261.249C294.379 261.062 293.894 260.966 293.405 260.966H289.683L289.686 249.786C289.686 249.297 289.59 248.812 289.403 248.36C289.216 247.908 288.942 247.497 288.596 247.151C288.25 246.805 287.839 246.531 287.387 246.344C286.935 246.157 286.449 246.06 285.96 246.061ZM620.652 262.974C613.156 255.456 589.664 257.13 563.393 272.944C562.547 273.456 561.939 274.281 561.7 275.239C561.462 276.198 561.612 277.212 562.119 278.06C562.45 278.611 562.919 279.067 563.479 279.384C564.038 279.7 564.671 279.866 565.314 279.865C565.99 279.864 566.654 279.68 567.234 279.334C593.587 263.469 612.087 264.954 615.384 268.243C616.088 268.917 617.028 269.288 618.002 269.277C618.976 269.266 619.907 268.874 620.596 268.186C621.284 267.497 621.676 266.566 621.687 265.592C621.697 264.618 621.326 263.677 620.652 262.974ZM436.138 220.837C434.079 220.837 432.412 222.504 432.412 224.563L432.409 235.741H428.686C426.627 235.741 424.96 237.408 424.96 239.468C424.96 239.957 425.056 240.442 425.243 240.894C425.43 241.346 425.705 241.757 426.051 242.103C426.397 242.449 426.808 242.723 427.26 242.91C427.712 243.097 428.196 243.194 428.686 243.193H432.408L432.405 254.372C432.405 254.861 432.501 255.346 432.688 255.798C432.876 256.25 433.15 256.661 433.496 257.007C433.842 257.353 434.252 257.627 434.704 257.814C435.156 258.002 435.642 258.098 436.131 258.098C436.62 258.098 437.105 258.001 437.557 257.814C438.009 257.627 438.421 257.354 438.767 257.008C439.113 256.662 439.387 256.25 439.574 255.798C439.761 255.346 439.858 254.861 439.857 254.372L439.86 243.193H443.583C444.072 243.194 444.557 243.097 445.009 242.91C445.461 242.723 445.873 242.449 446.219 242.103C446.565 241.757 446.839 241.346 447.026 240.894C447.213 240.442 447.31 239.957 447.31 239.468C447.31 237.408 445.643 235.741 443.583 235.741H439.861L439.864 224.563C439.864 222.504 438.198 220.837 436.138 220.837ZM488.442 205.934C486.39 205.934 484.76 207.6 484.76 209.659C484.76 211.719 486.463 213.386 488.522 213.386C490.575 213.386 492.248 211.719 492.248 209.659C492.247 208.671 491.855 207.724 491.156 207.025C490.458 206.327 489.51 205.934 488.522 205.934H488.442ZM324.494 191.029C322.443 191.029 320.812 192.696 320.812 194.755C320.813 196.815 322.515 198.481 324.574 198.481C326.626 198.481 328.301 196.815 328.301 194.755C328.301 192.696 326.627 191.029 324.574 191.029H324.494Z" fill="#112552"/>
<rect x="169" width="156" height="163" rx="40" fill="#FF0084"/>
<rect x="641" y="270" width="154" height="160" rx="40" fill="#A40BEB"/>
<rect x="678" y="309" width="233" height="242" rx="58" fill="#700BEB"/>
<rect x="139" y="682" width="150" height="156" rx="40" fill="#70B500"/>
<rect y="536" width="247" height="257" rx="58" fill="#FFBB00"/>
<rect x="82" y="50" width="196" height="204" rx="58" fill="#0051FF"/>
</svg>
